<svg width="300" height="300" viewBox="0 0 300 300" fill="none" xmlns="http://www.w3.org/2000/svg">
<rect width="300" height="300" rx="26" fill="white"/>
<g filter="url(#filter0_d_1_33)">
<path d="M57.6646 111.555V162.073C57.6646 167.125 58.9075 171.014 61.3933 173.74C63.8791 176.466 67.5276 177.83 72.3388 177.83C77.15 177.83 80.8387 176.466 83.4046 173.74C85.9706 171.014 87.2536 167.125 87.2536 162.073V111.555H107.822V161.952C107.822 169.49 106.218 175.865 103.01 181.077C99.8029 186.289 95.4728 190.218 90.0201 192.865C84.6475 195.511 78.6335 196.834 71.978 196.834C65.3224 196.834 59.3485 195.551 54.0561 192.985C48.844 190.339 44.7143 186.41 41.6672 181.197C38.6201 175.905 37.0966 169.49 37.0966 161.952V111.555H57.6646ZM142.833 111.555V195.992H122.265V111.555H142.833Z" fill="#2D9CDB"/>
</g>
<g filter="url(#filter1_d_1_33)">
<path d="M202.886 195.992L185.686 170.132L170.53 195.992H147.196L174.259 153.052L146.594 111.555H170.53L187.49 137.054L202.405 111.555H225.739L198.917 154.134L226.822 195.992H202.886Z" fill="#EB5757"/>
</g>
<g filter="url(#filter2_d_1_33)">
<path d="M252.464 126.17C252.164 127.578 251.46 128.709 250.352 129.563C249.267 130.417 248.021 130.844 246.613 130.844C244.582 130.844 242.966 130.128 241.766 128.697C240.589 127.289 240 125.315 240 122.776V111.455H264.306V122.396C264.306 124.865 263.74 126.793 262.609 128.178C261.478 129.586 259.943 130.29 258.004 130.29C256.573 130.29 255.384 129.909 254.438 129.147C253.492 128.409 252.834 127.416 252.464 126.17ZM254.473 117.375V121.253C254.473 122.222 254.68 122.961 255.096 123.469C255.534 124 256.169 124.265 257 124.265C257.831 124.265 258.466 124 258.904 123.469C259.343 122.961 259.562 122.222 259.562 121.253V117.375H254.473ZM244.778 121.738C244.778 122.73 244.997 123.492 245.436 124.023C245.897 124.577 246.555 124.854 247.409 124.854C248.263 124.854 248.933 124.565 249.418 123.988C249.902 123.434 250.145 122.661 250.145 121.669V117.375H244.778V121.738ZM244.293 149.408V140.337L240 138.882V132.685L264.306 141.479V148.335L240 157.129V150.862L244.293 149.408ZM248.864 147.885L257.762 144.872L248.864 141.895V147.885ZM239.758 168.6C239.758 166.822 240.046 165.23 240.623 163.822C241.2 162.414 242.054 161.283 243.185 160.429C244.316 159.598 245.678 159.159 247.271 159.113V165.414C246.371 165.507 245.678 165.818 245.193 166.349C244.732 166.88 244.501 167.573 244.501 168.427C244.501 169.304 244.697 169.996 245.09 170.504C245.505 171.012 246.071 171.266 246.786 171.266C247.386 171.266 247.883 171.058 248.275 170.643C248.667 170.25 248.991 169.754 249.244 169.154C249.498 168.577 249.787 167.746 250.11 166.661C250.595 165.091 251.079 163.81 251.564 162.818C252.049 161.825 252.764 160.971 253.711 160.256C254.657 159.54 255.892 159.182 257.416 159.182C259.678 159.182 261.443 160.002 262.713 161.641C264.005 163.279 264.652 165.414 264.652 168.046C264.652 170.723 264.005 172.882 262.713 174.52C261.443 176.159 259.666 177.036 257.381 177.152V170.746C258.166 170.7 258.777 170.412 259.216 169.881C259.678 169.35 259.908 168.669 259.908 167.838C259.908 167.123 259.712 166.545 259.32 166.107C258.95 165.668 258.408 165.449 257.692 165.449C256.908 165.449 256.296 165.818 255.857 166.557C255.419 167.296 254.946 168.45 254.438 170.019C253.907 171.589 253.399 172.858 252.914 173.828C252.43 174.82 251.726 175.674 250.802 176.39C249.879 177.106 248.69 177.463 247.236 177.463C245.851 177.463 244.593 177.106 243.462 176.39C242.331 175.698 241.431 174.682 240.762 173.343C240.092 172.004 239.758 170.423 239.758 168.6ZM259.562 187.027H254.646V194.956H250.075V187.027H244.743V195.995H240V181.107H264.306V195.995H259.562V187.027Z" fill="#F2994A"/>
</g>
<defs>
<filter id="filter0_d_1_33" x="1.90582" y="79.02" width="176.118" height="155.661" filterUnits="userSpaceOnUse" color-interpolation-filters="sRGB">
<feFlood flood-opacity="0" result="BackgroundImageFix"/>
<feColorMatrix in="SourceAlpha" type="matrix" values="0 0 0 0 0 0 0 0 0 0 0 0 0 0 0 0 0 0 127 0" result="hardAlpha"/>
<feOffset dy="2.65591"/>
<feGaussianBlur stdDeviation="17.5954"/>
<feComposite in2="hardAlpha" operator="out"/>
<feColorMatrix type="matrix" values="0 0 0 0 0.0313726 0 0 0 0 0.627451 0 0 0 0 0.968627 0 0 0 0.01 0"/>
<feBlend mode="normal" in2="BackgroundImageFix" result="effect1_dropShadow_1_33"/>
<feBlend mode="normal" in="SourceGraphic" in2="effect1_dropShadow_1_33" result="shape"/>
</filter>
<filter id="filter1_d_1_33" x="111.404" y="79.02" width="150.609" height="154.819" filterUnits="userSpaceOnUse" color-interpolation-filters="sRGB">
<feFlood flood-opacity="0" result="BackgroundImageFix"/>
<feColorMatrix in="SourceAlpha" type="matrix" values="0 0 0 0 0 0 0 0 0 0 0 0 0 0 0 0 0 0 127 0" result="hardAlpha"/>
<feOffset dy="2.65591"/>
<feGaussianBlur stdDeviation="17.5954"/>
<feComposite in2="hardAlpha" operator="out"/>
<feColorMatrix type="matrix" values="0 0 0 0 0.968627 0 0 0 0 0.0313725 0 0 0 0 0.0313725 0 0 0 0.05 0"/>
<feBlend mode="normal" in2="BackgroundImageFix" result="effect1_dropShadow_1_33"/>
<feBlend mode="normal" in="SourceGraphic" in2="effect1_dropShadow_1_33" result="shape"/>
</filter>
<filter id="filter2_d_1_33" x="204.567" y="78.9196" width="95.2758" height="154.922" filterUnits="userSpaceOnUse" color-interpolation-filters="sRGB">
<feFlood flood-opacity="0" result="BackgroundImageFix"/>
<feColorMatrix in="SourceAlpha" type="matrix" values="0 0 0 0 0 0 0 0 0 0 0 0 0 0 0 0 0 0 127 0" result="hardAlpha"/>
<feOffset dy="2.65591"/>
<feGaussianBlur stdDeviation="17.5954"/>
<feComposite in2="hardAlpha" operator="out"/>
<feColorMatrix type="matrix" values="0 0 0 0 0.968627 0 0 0 0 0.874902 0 0 0 0 0.0313725 0 0 0 0.12 0"/>
<feBlend mode="normal" in2="BackgroundImageFix" result="effect1_dropShadow_1_33"/>
<feBlend mode="normal" in="SourceGraphic" in2="effect1_dropShadow_1_33" result="shape"/>
</filter>
</defs>
</svg>
